<svg width="91" height="89" viewBox="0 0 91 89" fill="none" xmlns="http://www.w3.org/2000/svg">
<g filter="url(#filter0_b_740_76)">
<path d="M85 44C85 66.0914 67.0914 84 45 84C22.9086 84 5 66.0914 5 44C5 21.9086 22.9086 4 45 4C67.0914 4 85 21.9086 85 44Z" fill="#080808" fill-opacity="0.49"/>
</g>
<path d="M45.0001 30.6665L31.6667 43.9998M31.6667 43.9998L45.0001 57.3332M31.6667 43.9998H58.3334M78.3334 43.9998C78.3334 62.4093 63.4096 77.3332 45.0001 77.3332C26.5906 77.3332 11.6667 62.4093 11.6667 43.9998C11.6667 25.5903 26.5906 10.6665 45.0001 10.6665C63.4096 10.6665 78.3334 25.5903 78.3334 43.9998Z" stroke="#F5F5F5" stroke-width="4" stroke-linecap="round" stroke-linejoin="round"/>
<defs>
<filter id="filter0_b_740_76" x="1" y="0" width="88" height="88" filterUnits="userSpaceOnUse" color-interpolation-filters="sRGB">
<feFlood flood-opacity="0" result="BackgroundImageFix"/>
<feGaussianBlur in="BackgroundImageFix" stdDeviation="2"/>
<feComposite in2="SourceAlpha" operator="in" result="effect1_backgroundBlur_740_76"/>
<feBlend mode="normal" in="SourceGraphic" in2="effect1_backgroundBlur_740_76" result="shape"/>
</filter>
</defs>
</svg>
