<svg width="110" height="25" viewBox="0 0 110 25" fill="none" xmlns="http://www.w3.org/2000/svg">
<path opacity="0.3" d="M0 4.97499C0 4.40259 0.202708 3.93037 0.608108 3.55832C1.01351 3.18627 1.54055 3.00024 2.18919 3.00024C2.82626 3.00024 3.34169 3.1834 3.73552 3.54974C4.14092 3.92752 4.34363 4.41976 4.34363 5.0265C4.34363 5.576 4.14672 6.0339 3.7529 6.40024C3.3475 6.77802 2.81467 6.9669 2.15444 6.9669H2.13707C1.49999 6.9669 0.984562 6.77802 0.590734 6.40024C0.196905 6.02246 0 5.54737 0 4.97499ZM0.225869 20.0002V8.52953H4.08301V20.0002H0.225869ZM6.22008 20.0002H10.0772V13.5952C10.0772 13.1945 10.1236 12.8854 10.2162 12.6679C10.3784 12.2787 10.6245 11.9495 10.9546 11.6805C11.2847 11.4115 11.6988 11.277 12.1969 11.277C13.4942 11.277 14.1429 12.1413 14.1429 13.8699V20.0002H18V13.4235C18 11.7292 17.5946 10.4442 16.7838 9.56842C15.973 8.69266 14.9016 8.25478 13.5695 8.25478C12.0753 8.25478 10.9112 8.89013 10.0772 10.1608V10.1952H10.0598L10.0772 10.1608V8.52953H6.22008C6.24324 8.89585 6.25483 10.0349 6.25483 11.9467C6.25483 13.8585 6.24324 16.543 6.22008 20.0002Z" fill="white"/>
<path d="M55.5 3.125C58.0472 3.125 58.365 3.13437 59.3644 3.18125C60.3628 3.22812 61.0425 3.38469 61.6406 3.61719C62.2594 3.85531 62.7806 4.17781 63.3019 4.69813C63.7786 5.16678 64.1474 5.7337 64.3828 6.35938C64.6144 6.95656 64.7719 7.63719 64.8187 8.63562C64.8628 9.635 64.875 9.95281 64.875 12.5C64.875 15.0472 64.8656 15.365 64.8187 16.3644C64.7719 17.3628 64.6144 18.0425 64.3828 18.6406C64.1481 19.2667 63.7792 19.8337 63.3019 20.3019C62.8331 20.7784 62.2663 21.1473 61.6406 21.3828C61.0434 21.6144 60.3628 21.7719 59.3644 21.8187C58.365 21.8628 58.0472 21.875 55.5 21.875C52.9528 21.875 52.635 21.8656 51.6356 21.8187C50.6372 21.7719 49.9575 21.6144 49.3594 21.3828C48.7334 21.148 48.1664 20.779 47.6981 20.3019C47.2213 19.8333 46.8524 19.2664 46.6172 18.6406C46.3847 18.0434 46.2281 17.3628 46.1812 16.3644C46.1372 15.365 46.125 15.0472 46.125 12.5C46.125 9.95281 46.1344 9.635 46.1812 8.63562C46.2281 7.63625 46.3847 6.9575 46.6172 6.35938C46.8518 5.73328 47.2208 5.16624 47.6981 4.69813C48.1666 4.22116 48.7335 3.85224 49.3594 3.61719C49.9575 3.38469 50.6363 3.22812 51.6356 3.18125C52.635 3.13719 52.9528 3.125 55.5 3.125ZM55.5 7.8125C54.2568 7.8125 53.0645 8.30635 52.1854 9.18542C51.3064 10.0645 50.8125 11.2568 50.8125 12.5C50.8125 13.7432 51.3064 14.9355 52.1854 15.8146C53.0645 16.6936 54.2568 17.1875 55.5 17.1875C56.7432 17.1875 57.9355 16.6936 58.8146 15.8146C59.6936 14.9355 60.1875 13.7432 60.1875 12.5C60.1875 11.2568 59.6936 10.0645 58.8146 9.18542C57.9355 8.30635 56.7432 7.8125 55.5 7.8125ZM61.5938 7.57812C61.5938 7.26734 61.4703 6.96927 61.2505 6.74948C61.0307 6.52974 60.7327 6.40625 60.4219 6.40625C60.1111 6.40625 59.813 6.52974 59.5932 6.74948C59.3734 6.96927 59.25 7.26734 59.25 7.57812C59.25 7.88891 59.3734 8.18698 59.5932 8.40677C59.813 8.62651 60.1111 8.75 60.4219 8.75C60.7327 8.75 61.0307 8.62651 61.2505 8.40677C61.4703 8.18698 61.5938 7.88891 61.5938 7.57812ZM55.5 9.6875C56.2459 9.6875 56.9613 9.9838 57.4887 10.5113C58.0162 11.0387 58.3125 11.7541 58.3125 12.5C58.3125 13.2459 58.0162 13.9613 57.4887 14.4887C56.9613 15.0162 56.2459 15.3125 55.5 15.3125C54.7541 15.3125 54.0387 15.0162 53.5113 14.4887C52.9838 13.9613 52.6875 13.2459 52.6875 12.5C52.6875 11.7541 52.9838 11.0387 53.5113 10.5113C54.0387 9.9838 54.7541 9.6875 55.5 9.6875Z" fill="#5F5F5F"/>
<path d="M100.046 10.9249L105.017 4.46036H103.577L99.3268 9.98879L95.0758 4.46036H90.3298L96.9536 13.075L91.9825 19.54H93.4223L97.6732 14.0111L101.925 19.54H106.671L100.046 10.9249ZM92.6703 5.63219H94.5368L104.33 18.3681H102.463L92.6703 5.63219Z" fill="#5F5F5F"/>
</svg>
